HIERARCHY
ROOT Hips
{
	OFFSET 48.081699 0.648866 51.700199
	CHANNELS 6 Xposition Yposition Zposition Xrotation Yrotation Zrotation
	JOINT spine
	{
		OFFSET 0.000000 -0.477352 8.301041
		CHANNELS 3 Xrotation Yrotation Zrotation
		JOINT spine1
		{
			OFFSET 0.000000 -0.000002 10.456501
			CHANNELS 3 Xrotation Yrotation Zrotation
			JOINT spine2
			{
				OFFSET 0.000000 -0.000002 10.019203
				CHANNELS 3 Xrotation Yrotation Zrotation
				JOINT Neck
				{
					OFFSET 0.000000 -1.226414 25.723495
					CHANNELS 3 Xrotation Yrotation Zrotation
					JOINT Head
					{
						OFFSET 0.000000 -0.000001 7.771751
						CHANNELS 3 Xrotation Yrotation Zrotation
						End Site
						{
							OFFSET 0.000000 6.203937 18.812004
						}
					}
				}
				JOINT RightShoulder
				{
					OFFSET -4.218800 0.587437 10.820000
					CHANNELS 3 Xrotation Yrotation Zrotation
					JOINT RightArm
					{
						OFFSET 0.000000 -0.000002 14.191399
						CHANNELS 3 Xrotation Yrotation Zrotation
						JOINT RightArmRoll
						{
							OFFSET 0.000000 -0.000001 7.164078
							CHANNELS 3 Xrotation Yrotation Zrotation
							JOINT RightForeArm
							{
								OFFSET 0.000000 -0.000003 20.866501
								CHANNELS 3 Xrotation Yrotation Zrotation
								JOINT RightForeArmRoll
								{
									OFFSET 0.000000 -0.000001 8.039215
									CHANNELS 3 Xrotation Yrotation Zrotation
									JOINT RightHand
									{
										OFFSET 0.000000 -0.000003 16.132996
										CHANNELS 3 Xrotation Yrotation Zrotation
										End Site
										{
											OFFSET 0.000000 0.000000 0.100006
										}
									}
								}
							}
						}
					}
				}
				JOINT LeftShoulder
				{
					OFFSET 4.218800 0.587437 10.820000
					CHANNELS 3 Xrotation Yrotation Zrotation
					JOINT LeftArm
					{
						OFFSET 0.000000 -0.000002 14.191399
						CHANNELS 3 Xrotation Yrotation Zrotation
						JOINT LeftArmRoll
						{
							OFFSET 0.000000 -0.000001 7.164078
							CHANNELS 3 Xrotation Yrotation Zrotation
							JOINT LeftForeArm
							{
								OFFSET 0.000000 -0.000003 20.866501
								CHANNELS 3 Xrotation Yrotation Zrotation
								JOINT LeftForeArmRoll
								{
									OFFSET 0.000000 -0.000001 8.039215
									CHANNELS 3 Xrotation Yrotation Zrotation
									JOINT LeftHand
									{
										OFFSET 0.000000 -0.000003 16.132996
										CHANNELS 3 Xrotation Yrotation Zrotation
										End Site
										{
											OFFSET 0.000000 0.000000 0.100006
										}
									}
								}
							}
						}
					}
				}
			}
		}
	}
	JOINT RightUpLeg
	{
		OFFSET -7.357731 1.131810 -1.349209
		CHANNELS 3 Xrotation Yrotation Zrotation
		JOINT RightUpLegRoll
		{
			OFFSET 0.000000 -0.000003 18.916801
			CHANNELS 3 Xrotation Yrotation Zrotation
			JOINT RightLeg
			{
				OFFSET 0.000000 0.000004 -23.425598
				CHANNELS 3 Xrotation Yrotation Zrotation
				JOINT RightLegRoll
				{
					OFFSET 0.000000 -0.000004 23.502304
					CHANNELS 3 Xrotation Yrotation Zrotation
					JOINT RightFoot
					{
						OFFSET 0.000000 -0.000003 19.561699
						CHANNELS 3 Xrotation Yrotation Zrotation
						JOINT RightToeBase
						{
							OFFSET 0.000000 -0.000003 16.352600
							CHANNELS 3 Xrotation Yrotation Zrotation
							End Site
							{
								OFFSET 0.006931 0.912835 7.919441
							}
						}
					}
				}
			}
		}
	}
	JOINT LeftUpLeg
	{
		OFFSET 7.357731 1.131810 -1.349209
		CHANNELS 3 Xrotation Yrotation Zrotation
		JOINT LeftUpLegRoll
		{
			OFFSET 0.000000 -0.000003 18.916901
			CHANNELS 3 Xrotation Yrotation Zrotation
			JOINT LeftLeg
			{
				OFFSET 0.000000 -0.000004 23.425499
				CHANNELS 3 Xrotation Yrotation Zrotation
				JOINT LeftLegRoll
				{
					OFFSET 0.000000 -0.000004 23.719498
					CHANNELS 3 Xrotation Yrotation Zrotation
					JOINT LeftFoot
					{
						OFFSET 0.000000 -0.000003 19.344406
						CHANNELS 3 Xrotation Yrotation Zrotation
						JOINT LeftToeBase
						{
							OFFSET 0.000000 -0.000003 16.352600
							CHANNELS 3 Xrotation Yrotation Zrotation
							End Site
							{
								OFFSET -0.031063 0.912835 7.919434
							}
						}
					}
				}
			}
		}
	}
}
MOTION
Frames: 4
Frame Time: 0.041667
47.328495 -31.062416 98.884697 -2.461702 0.185332 1.707148 -1.041091 -0.109112 0.167827 1.937054 -0.222586 0.331011 3.582116 -0.218561 0.333614 18.561039 0.286327 -1.759002 -6.961160 -1.011857 -1.713578 -5.353761 -72.336607 -7.452822 -74.273075 -117.948105 -52.948682 0.000001 -0.000000 0.000000 4.049620 -10.150024 0.444810 0.000008 0.000005 -3.009700 -5.000230 -7.998803 0.000151 5.335686 63.926015 -5.440459 -57.743881 112.644559 42.102918 0.000003 -0.000024 -0.000000 5.621117 9.042974 0.188967 0.000001 -0.000005 3.000000 -5.000249 7.998851 -0.000143 -1.446345 -176.067250 0.689028 -179.999991 0.000005 -1.083004 173.096979 -3.528304 -0.716889 -0.000004 0.000000 0.086499 68.762151 6.908662 2.091501 25.456909 -7.346691 -0.000004 -2.423608 173.826498 0.391964 -0.000005 -0.000005 -1.164690 -12.216384 2.788077 1.112764 0.000003 -0.000001 -0.195512 69.683858 -6.920988 -1.998216 25.456935 7.342066 -0.000005 
47.330498 -31.025118 98.868896 -2.451428 0.189861 1.705409 -1.037062 -0.109321 0.167165 1.943954 -0.222752 0.329771 3.589016 -0.218744 0.332379 18.547065 0.300703 -1.763168 -6.958483 -1.025204 -1.717089 -5.351608 -72.317701 -7.448994 -74.229335 -117.968090 -52.905990 -0.000000 -0.000001 -0.000001 4.076636 -10.138217 0.446082 0.000007 0.000005 -3.009700 -5.000230 -7.998801 0.000152 5.341589 63.930502 -5.446450 -57.795066 112.658342 42.155388 0.000005 -0.000023 -0.000001 5.631749 9.038210 0.188564 0.000002 -0.000005 3.000000 -5.000252 7.998850 -0.000143 -1.482740 -176.068316 0.688179 -179.999991 0.000005 -1.083004 173.075914 -3.534101 -0.718906 -0.000005 0.000000 0.086692 68.757814 6.908642 2.091468 25.456909 -7.346691 -0.000003 -2.465239 173.818684 0.396470 -0.000005 -0.000004 -1.164710 -12.245775 2.783868 1.113420 0.000004 -0.000001 -0.195175 69.696152 -6.921008 -1.997753 25.456931 7.342066 -0.000004 
47.325401 -31.010113 98.869904 -2.441305 0.194514 1.703713 -1.033061 -0.109526 0.166517 1.950755 -0.222901 0.328531 3.595816 -0.218911 0.331142 18.532388 0.314093 -1.767361 -6.954814 -1.037719 -1.720668 -5.349532 -72.299492 -7.445313 -74.187008 -117.987980 -52.864780 -0.000002 0.000001 0.000002 4.103895 -10.126607 0.447337 0.000007 0.000006 -3.009700 -5.000227 -7.998800 0.000152 5.347592 63.934785 -5.452594 -57.846347 112.672214 42.208144 0.000002 -0.000023 -0.000001 5.642608 9.033426 0.188117 0.000004 -0.000005 3.000000 -5.000249 7.998851 -0.000143 -1.518610 -176.070379 0.687293 -179.999991 0.000005 -1.082006 173.055219 -3.539899 -0.720905 -0.000004 0.000000 0.086878 68.753504 6.908660 2.091339 25.456912 -7.346690 -0.000003 -2.506455 173.810870 0.401249 -0.000004 -0.000004 -1.164750 -12.274663 2.779225 1.114009 0.000003 -0.000001 -0.194789 69.708747 -6.920962 -1.997360 25.456933 7.342067 -0.000004 
47.320896 -30.999516 98.879303 -2.431287 0.199255 1.702030 -1.029083 -0.109730 0.165879 1.957494 -0.223039 0.327290 3.602556 -0.219066 0.329903 18.517213 0.326792 -1.771582 -6.950464 -1.049661 -1.724304 -5.347474 -72.281781 -7.441681 -74.145815 -118.007746 -52.824932 -0.000002 0.000000 0.000001 4.131319 -10.115193 0.448572 0.000004 0.000005 -3.009701 -5.000231 -7.998802 0.000152 5.353698 63.938876 -5.458872 -57.897710 112.686189 42.261092 0.000002 -0.000023 -0.000001 5.653631 9.028639 0.187638 0.000003 -0.000005 3.000001 -5.000250 7.998850 -0.000143 -1.554122 -176.072428 0.686367 -179.999991 0.000005 -1.082006 173.034783 -3.544709 -0.722773 -0.000005 0.000000 0.087059 68.749173 6.908638 2.091406 25.456906 -7.346690 -0.000004 -2.547367 173.802073 0.406264 -0.000004 -0.000005 -1.164810 -12.303346 2.774272 1.114553 0.000004 -0.000001 -0.194369 69.721362 -6.920982 -1.996876 25.456936 7.342067 -0.000004 
